<?xml version="1.0" encoding="UTF-8" standalone="no"?>
<!-- Created with Inkscape (http://www.inkscape.org/) -->

<svg
   width="100mm"
   height="31.358mm"
   viewBox="0 0 100 31.358"
   version="1.1"
   id="svg1"
   xml:space="preserve"
   inkscape:version="1.4.4 (dcaf3e7d9e, 2026-05-05)"
   sodipodi:docname="logo.svg"
   xmlns:inkscape="http://www.inkscape.org/namespaces/inkscape"
   xmlns:sodipodi="http://sodipodi.sourceforge.net/DTD/sodipodi-0.dtd"
   xmlns="http://www.w3.org/2000/svg"
   xmlns:svg="http://www.w3.org/2000/svg"><sodipodi:namedview
     id="namedview1"
     pagecolor="#ffffff"
     bordercolor="#000000"
     borderopacity="0.25"
     inkscape:showpageshadow="2"
     inkscape:pageopacity="0.0"
     inkscape:pagecheckerboard="0"
     inkscape:deskcolor="#d1d1d1"
     inkscape:document-units="mm"
     inkscape:lockguides="true"
     inkscape:zoom="0.43740881"
     inkscape:cx="128.02669"
     inkscape:cy="104.02168"
     inkscape:window-width="1299"
     inkscape:window-height="699"
     inkscape:window-x="0"
     inkscape:window-y="0"
     inkscape:window-maximized="1"
     inkscape:current-layer="layer1" /><defs
     id="defs1" /><g
     inkscape:label="Layer 1"
     inkscape:groupmode="layer"
     id="layer1"><path
       style="fill:#000000;stroke-width:0.398598"
       d="M 11.200754,31.303618 C 11.055724,31.256618 9.9167345,30.624747 8.6696552,29.899462 7.4225759,29.174176 5.2632471,27.928267 3.8711479,27.130775 0.05261997,24.943261 0.1769099,25.039016 0.06129997,24.195556 L 0,23.748555 0.12200993,23.295455 0.24401987,22.842354 0.61565966,22.430993 0.98729946,22.019631 1.5327792,21.817957 C 1.832789,21.707036 2.2973387,21.584405 2.5650986,21.545444 l 0.4868497,-0.07084 0.7383096,0.153943 0.7383096,0.153942 0.6731696,0.339398 c 0.5761797,0.290499 5.1949669,2.901371 6.1686669,3.486978 l 0.32786,0.197181 2.361428,-1.357072 c 1.29879,-0.746389 3.168219,-1.820705 4.154288,-2.387369 0.986069,-0.566663 2.064729,-1.219511 2.397009,-1.450772 l 0.604149,-0.420474 0.41089,-0.539981 c 0.50934,-0.669378 0.62736,-0.894118 0.91272,-1.738125 l 0.226799,-0.670832 0.25454,0.56537 0.25454,0.56537 8e-4,1.054623 8e-4,1.054623 -0.31303,0.565151 c -0.365739,0.660326 -0.830279,1.084131 -1.758619,1.604419 -0.368699,0.206642 -1.975469,1.126676 -3.570588,2.044519 -1.595109,0.917844 -3.554078,2.044907 -4.353247,2.504586 l -1.45305,0.835779 -0.198479,-0.03332 c -0.10917,-0.01832 -1.8123294,-0.957905 -3.7847883,-2.087957 l -3.586308,-2.054641 0.0601,-0.09727 0.0601,-0.09727 -0.10376,0.06412 c -0.0571,0.03527 -0.3329598,-0.0049 -0.6130996,-0.08917 L 3.1521183,23.487083 H 2.3936487 c -0.7476896,0 -1.42271923,0.150323 -1.42271923,0.316831 0,0.0469 0.0894999,0.06186 0.19894993,0.03325 0.1094199,-0.02861 0.5009397,0.02478 0.8700595,0.118651 l 0.6711196,0.170677 1.2128193,0.667464 c 0.6670497,0.367106 2.6312486,1.484882 4.3648776,2.483948 1.7336486,0.999066 3.2155786,1.840853 3.2931886,1.870637 l 0.14112,0.05415 0.925299,-0.517801 c 0.50892,-0.284791 2.894818,-1.644994 5.301987,-3.022674 l 4.376688,-2.504872 0.569659,-0.595454 0.56966,-0.595454 -0.055,1.160944 -0.055,1.160942 -0.16809,0.325055 c -0.27173,0.525463 -0.585989,0.731391 -5.045627,3.306237 -2.338889,1.350394 -4.616097,2.665404 -5.060467,2.922246 l -0.80793,0.466984 -0.40488,0.04012 c -0.222679,0.02206 -0.523529,0.0017 -0.668549,-0.04534 z m 1.371019,-7.148401 c 0,-0.03054 0.0893,-0.181503 0.19845,-0.335468 0.10915,-0.153964 0.27914,-0.517226 0.37776,-0.807247 l 0.17932,-0.527311 0.0835,-1.107355 0.0835,-1.107354 0.165609,-0.394318 c 0.20077,-0.47801 0.71849,-1.242266 1.22598,-1.809772 0.39689,-0.443825 0.38443,-0.440641 -0.51572,0.131743 -1.455739,0.925668 -3.565298,1.733685 -5.5635068,2.130974 L 7.6677258,20.555555 6.1385266,20.610405 4.6093175,20.665256 3.4042281,20.487859 2.1991388,20.310463 1.2158893,19.9955 c -1.22944929,-0.393829 -1.23617929,-0.384326 0.2794599,-0.395017 l 1.2627193,-0.0089 1.0310894,-0.164858 c 3.603878,-0.576216 6.8592661,-2.032135 9.9953741,-4.470268 0.46404,-0.360758 0.66204,-0.490915 0.44002,-0.289238 l -0.40369,0.366686 0.21675,0.116003 0.21676,0.116002 -0.0549,-0.143057 -0.0549,-0.143057 h 0.14809 c 0.0814,0 0.14281,0.05141 0.13636,0.114251 -0.006,0.06284 0.0358,0.123315 0.0937,0.134393 0.058,0.01108 0.13379,0.129722 0.16842,0.263655 l 0.063,0.243515 -0.22115,0.257408 -0.22115,0.257408 0.47458,-0.337394 c 2.726288,-1.938197 5.116897,-4.824424 9.004675,-10.8714829 l 1.857939,-2.88985 v 0.543314 c 0,0.298823 -0.0356,0.543279 -0.0791,0.543235 l -0.0791,-7.9e-5 0.0309,2.993073 c 0.017,1.64619 -0.007,3.212963 -0.0527,3.481717 l -0.0837,0.4886439 -0.930599,-0.7493879 c -0.51183,-0.412163 -0.94237,-0.733127 -0.95675,-0.713252 -0.0144,0.01987 -0.39827,0.581903 -0.853079,1.248952 -1.10251,1.6170209 -2.150799,2.9152859 -3.588938,4.4447599 l -1.18997,1.26553 -0.31763,0.598745 c -0.461019,0.868994 -0.637619,1.59336 -0.745309,3.05695 l -0.0955,1.298121 -0.32193,0.653936 c -0.17706,0.359665 -0.45508,0.780833 -0.61783,0.935928 -0.2959,0.282002 -3.196108,2.018196 -3.196108,1.913339 z M 25.508216,3.0730381 c 0.0349,-0.0909 0.0179,-0.210837 -0.0378,-0.266516 l -0.10123,-0.101234 -0.12143,0.266517 -0.12143,0.266516 h 0.15924 c 0.0876,0 0.18778,-0.07438 0.22267,-0.165283 z M 9.2803949,23.308382 8.0455356,22.609276 l 0.0626,-0.101334 c 0.0344,-0.05573 0.11555,-0.339625 0.1802399,-0.63087 l 0.11761,-0.529537 0.8964295,-0.182193 c 0.4930396,-0.100206 1.240499,-0.302194 1.661039,-0.448862 l 0.7646,-0.266668 v 0.813989 0.813988 l -0.1547,0.520923 c -0.16629,0.559967 -0.73454,1.417881 -0.93541,1.412229 -0.0675,-0.0019 -0.6783995,-0.31805 -1.3575791,-0.702559 z M 48.450923,21.799622 C 46.927634,21.584793 44.983835,20.890569 44.166006,20.26927 l -0.20264,-0.153942 0.5601,-1.082508 c 0.308049,-0.59538 0.594009,-1.12067 0.635459,-1.167311 l 0.0754,-0.0848 0.63096,0.369795 c 0.746989,0.437801 1.912249,0.844295 2.921158,1.01903 l 0.72659,0.125841 1.024669,-0.04934 1.02466,-0.04934 0.501489,-0.242764 0.50148,-0.242765 0.14794,-0.354059 0.14793,-0.354059 -0.1513,-0.362113 -0.1513,-0.362114 -0.33821,-0.174897 c -0.482539,-0.24953 -1.102219,-0.419804 -2.845868,-0.781977 -1.666469,-0.34614 -2.404619,-0.571829 -3.217458,-0.983726 l -0.52703,-0.267066 -0.49268,-0.526712 -0.49268,-0.526712 -0.177729,-0.611389 -0.17774,-0.61139 0.0641,-0.686522 0.0641,-0.686523 0.266919,-0.545572 0.26693,-0.545572 0.51202,-0.4789389 c 0.63776,-0.596549 1.379319,-0.977523 2.422099,-1.244347 l 0.807219,-0.20655 1.05463,-0.06412 1.054619,-0.06412 0.90832,0.12138 c 1.495979,0.199908 3.334718,0.808161 3.669928,1.21401 l 0.096,0.116182 -0.519989,1.1006739 c -0.28599,0.60537 -0.53805,1.118735 -0.56012,1.14081 -0.0221,0.02207 -0.27029,-0.0763 -0.55157,-0.218599 -0.281289,-0.142306 -0.843639,-0.363872 -1.249669,-0.49237 l -0.73824,-0.233633 -1.218109,-0.05564 -1.218109,-0.05564 -0.61671,0.179281 -0.6167,0.179281 -0.300799,0.300796 -0.30079,0.300796 v 0.362849 0.362849 l 0.26536,0.26536 0.26536,0.26536 0.710159,0.221793 c 0.3906,0.121986 1.327129,0.343658 2.081179,0.492604 1.780129,0.351621 2.381509,0.528878 3.220178,0.949139 l 0.68908,0.345302 0.43934,0.47662 0.439329,0.47662 0.17621,0.606146 0.17621,0.606147 -0.05,0.746608 -0.05,0.746608 -0.24891,0.527312 -0.248909,0.527311 -0.4855,0.47458 c -0.63021,0.616022 -1.364729,1.007737 -2.388159,1.273592 l -0.825189,0.214359 -1.31828,0.04102 c -0.725049,0.02256 -1.616859,-0.0011 -1.981799,-0.05256 z M 29.234814,18.332697 v -3.366711 l 1.502839,-1.272531 1.502829,-1.27253 0.0279,3.265639 0.0279,3.265639 h 1.829689 1.829699 l 0.56807,-0.106937 c 0.782369,-0.147277 1.572809,-0.553963 2.104589,-1.082815 l 0.44737,-0.444913 0.273599,-0.580043 0.27361,-0.580042 -0.003,-1.107355 -0.003,-1.107354 -0.24735,-0.47458 c -0.13602,-0.261019 -0.409469,-0.674559 -0.607649,-0.918978 l -0.36034,-0.444397 -0.80758,-0.399301 -0.807589,-0.399301 -3.770148,-0.03242 -3.770148,-0.03242 -0.0323,-1.3213919 c -0.0178,-0.726765 -0.0128,-1.340749 0.0111,-1.364408 0.0565,-0.05602 6.822946,0.04834 7.679326,0.118439 1.340279,0.109715 2.840458,0.731273 3.906768,1.6186659 l 0.627249,0.521998 0.4203,0.667619 c 0.55134,0.875759 0.83442,1.658507 0.977369,2.702543 l 0.11665,0.852019 -0.10549,0.841341 c -0.357649,2.852305 -2.261378,4.867488 -5.266617,5.574933 l -0.700209,0.164833 -3.822998,0.04074 -3.823008,0.04074 z m 32.376902,0.887492 v -2.49656 l -0.10205,-0.190687 -0.10205,-0.190686 2.519699,-3.730851 c 1.385839,-2.051968 3.223308,-4.7712229 4.083258,-6.0427879 0.859949,-1.271565 1.574519,-2.339371 1.587919,-2.372902 0.0134,-0.03353 -0.40185,-0.298004 -0.92279,-0.587719 -1.120829,-0.62333 -1.107589,-0.587307 -0.34076,-0.927577 0.33352,-0.147997 1.764489,-0.819297 3.179919,-1.491779 C 72.93029,0.51615813 74.103919,-0.01850887 74.122919,4.9113362e-4 74.183519,0.06109113 73.934089,6.5507491 73.861909,6.7915821 l -0.0693,0.2312 -0.835169,-0.626426 c -0.45934,-0.344535 -0.8466,-0.614677 -0.86058,-0.600318 -0.014,0.01436 -1.690099,2.470198 -3.724718,5.4574179 l -3.699318,5.431308 -0.002,2.478364 -0.002,2.478364 -1.528789,0.03763 -1.528799,0.03763 z m 9.541155,2.345115 c -0.0283,-0.0741 -0.0392,-3.019811 -0.0242,-6.546014 l 0.0273,-6.4112769 1.378449,-0.01128 1.378439,-0.01128 0.47604,0.516665 c 0.75067,0.814747 4.267458,4.7676499 5.836826,6.5606629 l 0.843698,0.963928 0.02759,-4.045591 0.02759,-4.0455919 1.554341,0.01432 1.554341,0.01432 v 6.5386629 6.538662 l -1.242514,0.02974 c -1.578501,0.03778 -0.72897,0.783847 -6.336043,-5.56438 -0.58814,-0.665876 -1.354089,-1.512818 -1.702119,-1.882092 l -0.63277,-0.671409 -0.0527,4.044069 -0.0527,4.044069 -1.505029,0.02927 -1.505029,0.02927 z m 15.737404,0.06138 c -0.04019,-0.04019 -0.07308,-2.983839 -0.07308,-6.541434 V 8.6168981 h 1.581933 1.581935 l 0.0047,2.9265789 0.0047,2.926579 2.908965,-2.952945 2.908965,-2.9529439 h 1.869789 1.869788 l -2.787542,2.8661789 c -1.53315,1.576399 -2.790649,2.89894 -2.794442,2.938981 -0.0066,0.06921 2.797267,3.446519 5.005757,6.029622 C 99.537284,21.060419 100,21.610932 100,21.622311 c 0,0.01138 -0.847038,0.03085 -1.882307,0.04327 l -1.882306,0.02258 -0.163628,-0.128798 c -0.09,-0.07084 -1.028964,-1.172874 -2.0866,-2.448968 -1.057634,-1.276094 -1.988151,-2.389987 -2.067814,-2.475318 l -0.144841,-0.155149 -0.8932,0.88856 -0.893198,0.888559 -0.02887,1.692222 -0.02887,1.692221 -1.482489,0.02914 c -0.815368,0.01602 -1.515374,-0.0037 -1.555568,-0.04394 z M 17.86881,21.084949 c 0.0218,-0.04193 0.15026,-0.310933 0.28554,-0.59779 l 0.24596,-0.52156 0.0787,-1.460757 c 0.0433,-0.803417 0.10816,-1.490192 0.14414,-1.526167 0.036,-0.03597 0.0654,0.03742 0.0654,0.163092 v 0.228502 l 0.23729,-0.0016 0.237289,-0.0016 -0.158189,-0.102233 -0.1582,-0.102232 0.11074,-0.0016 c 0.0609,-8.77e-4 0.167679,0.05534 0.237289,0.12494 l 0.12655,0.126554 v -0.130265 -0.130265 l 0.18456,0.09649 c 0.10151,0.05307 0.53238,0.09873 0.95749,0.101461 l 0.772919,0.005 -0.0626,-0.163067 -0.0626,-0.163066 0.26044,0.04978 0.26043,0.04978 0.0542,-0.169028 c 0.0298,-0.09296 0.0341,0.01381 0.01,0.237284 -0.0245,0.223471 -0.18606,0.708719 -0.35902,1.078327 l -0.31448,0.672016 -0.470349,0.450876 c -0.41144,0.394404 -2.787779,1.888659 -2.683169,1.687191 z M 1.834989,18.583256 c 0.5258297,-0.193283 0.9558695,-0.524491 1.1853093,-0.912899 l 0.1901799,-0.321956 0.0212,-1.343083 0.0212,-1.343082 0.2320599,-0.375471 0.2320499,-0.37547 0.4219597,-0.168835 0.4219598,-0.168834 h 1.0524894 1.0524794 l -3.9e-4,1.502838 -4e-4,1.502838 -0.1164599,0.419471 -0.1164499,0.419472 -0.3839098,0.379312 -0.3838998,0.379312 -0.8436996,0.176191 C 3.9224578,18.540635 2.2864787,18.743861 1.762259,18.732983 l -0.3163798,-0.0066 z m 5.7800668,-1.206763 c 0,-0.05458 0.0481,-0.128988 0.10697,-0.165349 0.0588,-0.03636 0.2119898,-0.264587 0.3403398,-0.50717 l 0.2333798,-0.441059 0.0551,-2.602805 0.0551,-2.602806 0.2184299,-0.297408 C 8.7445052,10.596322 9.005525,10.379511 9.2044149,10.278093 l 0.3616198,-0.184395 1.0809893,-1.64e-4 1.08099,-1.64e-4 v 2.582802 2.582801 l -0.50095,0.370342 c -0.89726,0.66333 -3.6120782,1.9765 -3.6120782,1.747178 z M 59.555207,13.757732 C 58.917158,12.820033 57.905008,11.339063 57.305978,10.466689 56.706949,9.5943151 56.177709,8.8093671 56.129889,8.7223601 l -0.0869,-0.158193 1.792289,0.01426 1.792279,0.01426 0.91548,1.304959 c 0.503509,0.7177269 1.171019,1.6746109 1.483349,2.1264079 l 0.56786,0.82145 -0.88672,1.31247 c -0.48771,0.721859 -0.910459,1.310717 -0.939459,1.308573 -0.029,-0.0022 -0.57477,-0.771107 -1.21282,-1.708806 z M 13.415473,10.520417 V 7.0244891 l 0.1543,-0.298369 c 0.181129,-0.350276 0.348609,-0.429392 0.908949,-0.429392 h 0.41323 v 0.418138 0.418139 l -0.21093,0.112883 -0.21092,0.112884 v 0.47348 0.47348 l 0.28892,0.109848 0.28893,0.109849 0.33041,-0.06199 0.330419,-0.06199 0.0607,-0.37427 0.0607,-0.37427 -0.0974,-0.256245 c -0.0536,-0.140935 -0.14053,-0.256245 -0.19321,-0.256245 -0.115789,0 -0.225279,-0.511487 -0.150949,-0.705186 l 0.0532,-0.138512 h 0.674219 0.67422 v 2.150571 2.1505709 l -0.49352,0.565083 c -0.78586,0.899809 -1.620429,1.752351 -2.274869,2.323842 l -0.606409,0.52955 z m 1.999379,3.026843 c 0.437029,-0.465635 0.531719,-0.549362 0.531719,-0.470172 0,0.01693 -0.22543,0.242351 -0.500949,0.500946 l -0.50094,0.470172 z m -0.11805,-8.7347349 c -0.0197,-0.352277 -0.003,-0.727567 0.0363,-0.833978 l 0.0721,-0.193475 0.613409,-0.04171 c 0.33737,-0.02294 0.67859,-0.06291 0.75826,-0.08882 l 0.14487,-0.04711 -0.0206,0.842178 -0.0207,0.842179 -0.12421,0.079 c -0.0683,0.04345 -0.41662,0.07973 -0.77399,0.08062 l -0.649779,0.0016 z m -1.775859,-1.521473 v -0.580043 h 0.580039 0.58004 v 0.580043 0.580043 h -0.58004 -0.580039 z"
       id="path11681" /></g></svg>
